<?xml version="1.0" encoding="utf-8"?>
<!-- Generator: Adobe Illustrator 24.0.1, SVG Export Plug-In . SVG Version: 6.00 Build 0)  -->
<svg version="1.1" id="Capa_1" xmlns="http://www.w3.org/2000/svg" xmlns:xlink="http://www.w3.org/1999/xlink" x="0px" y="0px"
	 viewBox="0 0 24 24" style="enable-background:new 0 0 24 24;" xml:space="preserve">
<style type="text/css">
	.st0{fill:#0A66C2;}
</style>
<title>LinkedIn</title>
<path class="st0" d="M20.4,20.5h-3.6v-5.6c0-1.3,0-3-1.9-3c-1.9,0-2.1,1.4-2.1,2.9v5.7H9.4V9h3.4v1.6h0c0.5-0.9,1.6-1.9,3.4-1.9
	c3.6,0,4.3,2.4,4.3,5.5L20.4,20.5L20.4,20.5z M5.3,7.4c-1.1,0-2.1-0.9-2.1-2.1c0-1.1,0.9-2.1,2.1-2.1c1.1,0,2.1,0.9,2.1,2.1
	C7.4,6.5,6.5,7.4,5.3,7.4z M7.1,20.5H3.6V9h3.6V20.5z M22.2,0H1.8C0.8,0,0,0.8,0,1.7v20.5c0,1,0.8,1.7,1.8,1.7h20.5
	c1,0,1.8-0.8,1.8-1.7V1.7C24,0.8,23.2,0,22.2,0L22.2,0z"/>
</svg>
